<?xml version="1.0" encoding="UTF-8"?>
<!DOCTYPE svg PUBLIC "-//W3C//DTD SVG 1.1//EN" "http://www.w3.org/Graphics/SVG/1.1/DTD/svg11.dtd">
<!-- Creator: CorelDRAW 2020 (64-Bit) -->
<svg xmlns="http://www.w3.org/2000/svg" xml:space="preserve" width="21.1667mm" height="12.7mm" version="1.1" style="shape-rendering:geometricPrecision; text-rendering:geometricPrecision; image-rendering:optimizeQuality; fill-rule:evenodd; clip-rule:evenodd"
viewBox="0 0 48.24 28.95"
 xmlns:xlink="http://www.w3.org/1999/xlink"
 xmlns:xodm="http://www.corel.com/coreldraw/odm/2003">
 <defs>
  <style type="text/css">
   <![CDATA[
    .fil0 {fill:#FEFEFE}
    .fil1 {fill:#1E3050;fill-rule:nonzero}
   ]]>
  </style>
 </defs>
 <g id="Capa_x0020_1">
  <metadata id="CorelCorpID_0Corel-Layer"/>
  <g id="_2509397781712">
   <g>
    <path id="path4" class="fil1" d="M25.16 14.38c-0.26,0 -0.45,0.09 -0.65,0.18l0 2c0.19,0.02 0.29,0.02 0.47,0.02 0.63,0 0.72,-0.29 0.72,-0.7l0 -0.95c0,-0.3 -0.1,-0.54 -0.54,-0.54zm-14.53 3.2l-1.3 0 0 -4.87c0,-0.88 0.37,-1.41 1.4,-1.41l0.86 0 0 1.08 -0.54 0c-0.4,0 -0.43,0.15 -0.43,0.43l-0 4.76zm-1.94 -3.14l0 -1.08 2.92 0 -0.11 1.08 -2.81 0zm5.08 0.57c0,-0.44 -0.05,-0.57 -0.73,-0.57l-1.11 0 0.11 -1.08 1.21 0c1.49,0 1.81,0.47 1.81,1.66l0 2.57 0 0 -1.08 -0 -0.05 -0.27c-0.49,0.27 -0.93,0.32 -1.22,0.32 -0.79,0 -1.21,-0.53 -1.21,-1.26 0,-0.86 0.49,-1.17 1.37,-1.17l1 0 0 0.87 -0.69 0c-0.27,0 -0.39,0.05 -0.39,0.29 0,0.24 0.11,0.36 0.36,0.36 0.26,0 0.42,-0.09 0.61,-0.17l0 -1.53zm4.97 -0.49c-0.67,-0.12 -0.87,-0.14 -1.19,-0.14 -0.58,0 -0.76,0.13 -0.76,0.62l0 0.93c0,0.49 0.18,0.62 0.76,0.62 0.32,0 0.52,-0.03 1.19,-0.14l0 1.05c-0.59,0.13 -0.97,0.17 -1.3,0.17 -1.39,0 -1.94,-0.73 -1.94,-1.79l0 -0.76c0,-1.06 0.55,-1.79 1.94,-1.79 0.32,0 0.71,0.03 1.3,0.17l0 1.05zm1.68 1.41c0,0.49 0.18,0.62 0.76,0.62 0.52,0 0.84,-0.03 1.51,-0.14l0 1.05c-0.65,0.13 -0.98,0.17 -1.62,0.17 -1.39,0 -1.94,-0.73 -1.94,-1.79l0 -0.87c0,-0.92 0.41,-1.68 1.84,-1.68 1.43,0 1.84,0.75 1.84,1.68l0 0.87 -2.4 0 0 -0.87 1.1 0 0 -0.17c0,-0.3 -0.1,-0.54 -0.54,-0.54 -0.44,0 -0.54,0.24 -0.54,0.54l0 1.12zm6.59 -0.07c0,1.02 -0.29,1.77 -2.06,1.77 -0.64,0 -1.01,-0.06 -1.72,-0.16l0 -5.84 1.3 -0.22 0 2.04c0.28,-0.1 0.64,-0.16 0.97,-0.16 1.3,0 1.51,0.58 1.51,1.51l0 1.05zm9.97 1.71l-1.3 0 0 -5.95 1.3 -0.22 0 6.16zm2.59 0l-1.4 0 -1.29 -2.15 1.29 -2.06 1.4 0 -1.3 2.05 1.3 2.16zm0 0l0 0 0 0z"/>
   </g>
   <g>
    <path id="path6" class="fil1" d="M29.26 14.38c-0.44,0 -0.59,0.24 -0.59,0.54l0 1.09c0,0.3 0.15,0.54 0.59,0.54 0.44,0 0.59,-0.24 0.59,-0.54l0 -1.09c0,-0.3 -0.15,-0.54 -0.59,-0.54zm1.89 1.51c0,0.88 -0.36,1.74 -1.89,1.74 -1.52,0 -1.89,-0.85 -1.89,-1.74l0 -0.85c0,-0.88 0.37,-1.74 1.89,-1.74 1.52,0 1.89,0.85 1.89,1.74l0 0.85zm0 0l0 0 0 0z"/>
   </g>
   <g>
    <g>
     <path class="fil1" d="M33.41 14.38c-0.44,0 -0.59,0.24 -0.59,0.54l0 1.09c0,0.3 0.15,0.54 0.59,0.54 0.44,0 0.59,-0.24 0.59,-0.54l0 -1.09c0,-0.3 -0.15,-0.54 -0.59,-0.54zm1.89 1.51c0,0.88 -0.36,1.74 -1.89,1.74 -1.52,0 -1.89,-0.85 -1.89,-1.74l0 -0.85c0,-0.88 0.37,-1.74 1.89,-1.74 1.52,0 1.89,0.85 1.89,1.74l0 0.85zm0 0l0 0 0 0z"/>
    </g>
   </g>
  </g>
 </g>
</svg>
