<?xml version="1.0" encoding="UTF-8"?>
<!DOCTYPE svg PUBLIC "-//W3C//DTD SVG 1.1//EN" "http://www.w3.org/Graphics/SVG/1.1/DTD/svg11.dtd">
<!-- Creator: CorelDRAW 2020 (64-Bit) -->
<svg xmlns="http://www.w3.org/2000/svg" xml:space="preserve" width="21.1667mm" height="12.7mm" version="1.1" style="shape-rendering:geometricPrecision; text-rendering:geometricPrecision; image-rendering:optimizeQuality; fill-rule:evenodd; clip-rule:evenodd"
viewBox="0 0 50.94 30.56"
 xmlns:xlink="http://www.w3.org/1999/xlink"
 xmlns:xodm="http://www.corel.com/coreldraw/odm/2003">
 <defs>
  <style type="text/css">
   <![CDATA[
    .fil0 {fill:#FEFEFE}
    .fil1 {fill:#1E3050;fill-rule:nonzero}
   ]]>
  </style>
 </defs>
 <g id="Capa_x0020_1">
  <metadata id="CorelCorpID_0Corel-Layer"/>
  <g id="instagram-1.svg">
   <path class="fil1" d="M9.39 8.68c-0.26,0.1 -0.69,0.64 -0.95,1.17 -0.35,0.74 -0.5,1.4 -0.5,2.15 0,0.55 0.03,0.73 0.21,1.12 0.12,0.25 0.3,0.56 0.42,0.68 0.26,0.28 0.75,0.5 1.08,0.51 0.21,0 0.25,0.03 0.25,0.19 0,0.11 -0.07,0.36 -0.15,0.58 -0.34,0.89 -1.03,1.39 -1.93,1.39 -0.64,0 -1.1,-0.21 -1.27,-0.57 -0.21,-0.44 -0.16,-0.71 0.19,-1.14 0.24,-0.28 0.33,-0.46 0.36,-0.72 0.03,-0.31 0.02,-0.36 -0.15,-0.41 -0.44,-0.16 -0.99,0.25 -1.16,0.85 -0.05,0.19 -0.07,0.53 -0.05,0.78 0.12,1.27 1.07,1.91 2.64,1.81 0.86,-0.06 1.31,-0.23 1.78,-0.71 0.49,-0.49 0.7,-1.03 0.8,-2.04 0.08,-0.85 0.1,-4.1 0.03,-4.97 -0.05,-0.59 -0.05,-0.59 -0.29,-0.63 -0.55,-0.08 -1.17,-0.11 -1.32,-0.05zm0.48 1.1c0.05,0.06 0.06,0.82 0.04,1.89 -0.03,1.67 -0.05,1.8 -0.18,1.84 -0.25,0.08 -0.56,-0.13 -0.76,-0.54 -0.18,-0.35 -0.19,-0.48 -0.19,-1.31 0,-1 0.08,-1.37 0.4,-1.74 0.2,-0.25 0.56,-0.32 0.69,-0.14l0 0zm9.33 -0.89c-0.02,0.06 -0.05,0.29 -0.05,0.51 0,0.22 -0.02,0.63 -0.05,0.92l-0.05 0.52 -0.35 0c-0.35,0 -0.91,0.11 -0.99,0.18 -0.02,0.02 0,0.11 0.05,0.19 0.08,0.14 0.24,0.2 1.07,0.37l0.17 0.03 -0.02 1.84c-0.02,1.61 -0.01,1.89 0.12,2.31 0.25,0.82 0.81,1.31 1.38,1.2 0.29,-0.05 0.66,-0.46 0.92,-0.99 0.12,-0.25 0.22,-0.39 0.22,-0.31 0,0.25 0.36,0.94 0.56,1.07 0.1,0.07 0.37,0.15 0.59,0.2 0.66,0.12 1.05,-0.15 1.44,-1.05l0.12 -0.3 0.07 0.22c0.08,0.31 0.5,0.72 0.78,0.77 0.3,0.06 0.7,-0.12 0.91,-0.4l0.18 -0.24 0.16 0.32c0.22,0.42 0.45,0.58 1,0.68 0.41,0.07 0.48,0.07 0.66,-0.07 0.11,-0.08 0.29,-0.32 0.41,-0.52l0.22 -0.38 0 0.92 -0.57 0.56c-0.63,0.62 -1.1,1.43 -1.32,2.3 -0.38,1.49 0.1,2.15 1.57,2.15 0.63,0.01 0.64,0.01 0.86,-0.25 0.36,-0.43 0.42,-0.76 0.46,-2.72l0.04 -1.81 0.25 0c0.14,0 0.29,-0.05 0.35,-0.1 0.08,-0.08 0.07,-0.13 -0.08,-0.25 -0.1,-0.08 -0.27,-0.15 -0.38,-0.15l-0.19 0 0.04 -1.26c0.03,-0.96 0.07,-1.31 0.17,-1.51l0.13 -0.25 -0.25 -0.1 -0.25 -0.11 0 -0.69c0,-0.66 -0.02,-0.71 -0.22,-0.93 -0.12,-0.12 -0.36,-0.26 -0.54,-0.32 -0.18,-0.05 -0.49,-0.16 -0.69,-0.25 -0.42,-0.19 -0.65,-0.15 -1.02,0.17 -0.52,0.46 -0.79,1.37 -0.89,3.05 -0.06,1.07 -0.18,1.45 -0.47,1.54 -0.22,0.07 -0.36,-0.07 -0.46,-0.42 -0.1,-0.38 -0.1,-1.25 0.02,-1.68 0.08,-0.34 0.08,-0.36 -0.11,-0.52 -0.18,-0.15 -0.2,-0.23 -0.23,-0.8 -0.05,-0.81 -0.16,-0.97 -0.88,-1.27 -1.44,-0.59 -2.15,0.06 -2.42,2.21 -0.04,0.33 -0.11,0.65 -0.15,0.69 -0.04,0.05 -0.13,0.32 -0.19,0.61 -0.15,0.65 -0.37,1.1 -0.63,1.26 -0.19,0.12 -0.2,0.12 -0.35,-0.02 -0.23,-0.23 -0.3,-0.96 -0.25,-2.57 0.05,-2.02 0.02,-1.91 0.54,-1.98 0.24,-0.02 0.66,-0.05 0.93,-0.05 0.53,-0.01 0.61,-0.08 0.34,-0.32 -0.12,-0.11 -0.33,-0.15 -0.91,-0.19l-0.75 -0.05 0.02 -0.54c0.01,-0.3 0.04,-0.71 0.06,-0.91 0.05,-0.36 0.04,-0.37 -0.21,-0.47 -0.43,-0.17 -0.82,-0.21 -0.86,-0.07l0 0zm9.27 3.22c0.2,0.18 0.22,0.22 0.21,0.76 -0.02,1.04 -0.22,2.22 -0.47,2.72 -0.18,0.35 -0.49,0.66 -0.69,0.66 -0.1,0 -0.23,-0.08 -0.31,-0.21 -0.21,-0.31 -0.2,-2.35 0.01,-2.96 0.2,-0.6 0.42,-0.93 0.69,-1.05 0.32,-0.14 0.32,-0.14 0.56,0.08zm-4.47 0.16c0.21,0.27 0.29,0.83 0.14,1.06 -0.06,0.1 -0.15,0.55 -0.19,1 -0.12,1.03 -0.27,1.57 -0.55,1.85 -0.32,0.32 -0.59,0.29 -0.75,-0.08 -0.3,-0.7 -0.18,-2.73 0.22,-3.5 0.28,-0.55 0.84,-0.72 1.13,-0.34l0 0zm4.65 7.78c-0.14,0.9 -0.47,1.36 -0.9,1.26 -0.4,-0.1 -0.53,-0.83 -0.3,-1.71 0.17,-0.64 0.58,-1.48 0.93,-1.89l0.3 -0.34 0.02 1.07c0.01,0.59 -0.02,1.32 -0.06,1.61z"/>
   <path class="fil1" d="M34.47 11.41c-0.39,0.41 -0.63,1.03 -0.74,2.01 -0.11,0.93 -0.42,2.15 -0.63,2.54 -0.13,0.24 -0.22,0.32 -0.36,0.32 -0.31,0 -0.41,-0.42 -0.36,-1.58 0.03,-0.7 0.08,-1.12 0.22,-1.54l0.18 -0.57 -0.17 -0.14c-0.11,-0.08 -0.37,-0.15 -0.69,-0.19 -0.29,-0.02 -0.57,-0.05 -0.63,-0.06 -0.08,-0.02 -0.12,-0.12 -0.12,-0.32 -0.01,-0.44 -0.08,-0.52 -0.4,-0.48 -0.47,0.08 -0.47,0.09 -0.43,1.39 0.03,0.76 0.01,1.38 -0.05,1.75 -0.14,0.82 -0.13,0.88 0.02,0.91 0.21,0.05 0.41,-0.51 0.57,-1.61l0.15 -0.96 0.46 0 -0.03 1c-0.05,1.97 0.36,2.97 1.21,2.97 0.35,0 0.66,-0.24 0.89,-0.69l0.19 -0.38 0.12 0.33c0.07,0.18 0.22,0.42 0.34,0.52 0.25,0.24 0.97,0.42 1.27,0.3 0.25,-0.09 0.59,-0.5 0.8,-0.96l0.16 -0.38 0.15 0.32c0.37,0.83 1.22,0.89 1.72,0.13l0.21 -0.32 0.05 0.4c0.07,0.51 0.15,0.61 0.58,0.68 0.67,0.1 0.67,0.09 0.83,-1.07 0.13,-1.04 0.33,-1.91 0.45,-1.91 0.03,0 0.07,0.52 0.08,1.15 0.02,1 0.05,1.17 0.17,1.31 0.3,0.33 1.05,0.28 1.05,-0.08 0,-0.27 0.31,-1.39 0.56,-2.04l0.25 -0.62 0.04 1.08c0.03,0.96 0.06,1.13 0.23,1.46 0.11,0.22 0.29,0.46 0.4,0.54 0.29,0.21 0.83,0.21 1.11,0 0.59,-0.44 1.21,-2.35 0.76,-2.35 -0.14,0 -0.23,0.19 -0.31,0.58 -0.18,0.99 -0.77,1.55 -1.04,0.98 -0.16,-0.33 -0.19,-1.66 -0.04,-2.29 0.23,-1 0.24,-0.93 -0.07,-1.16 -0.19,-0.15 -0.41,-0.23 -0.66,-0.25l-0.36 -0.03 -0.2 0.45c-0.12,0.25 -0.37,0.93 -0.58,1.5l-0.37 1.04 -0.02 -1.17 -0.02 -1.18 -0.22 -0.12c-0.62,-0.32 -0.94,-0.03 -1.3,1.17 -0.14,0.46 -0.26,0.87 -0.28,0.92 -0.02,0.04 -0.03,-0.59 -0.03,-1.4 -0.01,-0.92 -0.04,-1.5 -0.08,-1.53 -0.05,-0.03 -0.27,-0.07 -0.49,-0.09l-0.42 -0.05 -0.03 1.46c-0.03,1.23 -0.06,1.54 -0.2,1.97 -0.3,0.9 -0.69,1.18 -0.91,0.65 -0.13,-0.32 -0.15,-1.48 -0.02,-1.93 0.08,-0.28 0.07,-0.32 -0.11,-0.46 -0.16,-0.13 -0.19,-0.25 -0.24,-0.76 -0.06,-0.69 -0.18,-0.98 -0.45,-1.1 -0.81,-0.38 -0.95,-0.42 -1.35,-0.42 -0.42,0 -0.46,0.02 -0.76,0.34l0 0zm1.5 0.74c0.25,0.14 0.42,1.01 0.23,1.2 -0.04,0.04 -0.12,0.44 -0.15,0.88 -0.11,1.05 -0.28,1.64 -0.55,1.94 -0.29,0.3 -0.6,0.29 -0.76,-0.04 -0.26,-0.56 -0.25,-2.12 0.03,-3.09 0.23,-0.78 0.72,-1.15 1.2,-0.9zm-24.04 -0.48c-0.06,0.11 -0.22,3.77 -0.19,4.2 0.05,0.51 0.22,0.68 0.67,0.68 0.19,0 0.39,-0.03 0.44,-0.06 0.05,-0.03 0.15,-0.35 0.22,-0.71 0.15,-0.72 0.38,-1.47 0.55,-1.78 0.1,-0.18 0.11,-0.11 0.12,0.73 0,1.03 0.11,1.38 0.46,1.57 0.25,0.13 0.74,0.07 1.02,-0.14 0.23,-0.17 0.23,-0.17 0.34,-0.02 0.25,0.36 1.31,0.56 2.06,0.4 0.56,-0.12 0.9,-0.39 0.9,-0.73 0,-0.33 -0.12,-0.48 -0.92,-1.13 -0.8,-0.65 -0.93,-0.82 -0.93,-1.2 0,-0.56 0.69,-0.89 1.09,-0.53 0.19,0.17 0.35,0.13 0.57,-0.13 0.16,-0.19 0.19,-0.31 0.18,-0.56 -0.02,-0.26 -0.06,-0.33 -0.25,-0.42 -0.43,-0.21 -1.84,0.17 -2.35,0.63 -0.4,0.37 -0.49,0.94 -0.24,1.44 0.12,0.24 0.13,0.31 0.05,0.34 -0.05,0.02 -0.12,0.19 -0.15,0.37 -0.12,0.78 -0.53,1.31 -0.81,1.04 -0.1,-0.11 -0.12,-0.34 -0.14,-1.39 -0.01,-0.96 -0.04,-1.32 -0.13,-1.5 -0.13,-0.25 -0.43,-0.37 -0.66,-0.25 -0.19,0.1 -0.5,0.63 -0.78,1.34l-0.22 0.56 -0.01 -1.25c0,-1.21 -0.01,-1.26 -0.17,-1.37 -0.24,-0.15 -0.66,-0.22 -0.71,-0.14l0 0zm5.16 3.67c0.19,0.16 0.35,0.36 0.37,0.44 0.12,0.43 -0.52,0.56 -1.01,0.19 -0.16,-0.12 -0.38,-0.27 -0.5,-0.34 -0.13,-0.08 -0.19,-0.16 -0.16,-0.24 0.02,-0.06 0.08,-0.31 0.13,-0.55l0.08 -0.44 0.39 0.32c0.21,0.17 0.53,0.45 0.7,0.61l0 0z"/>
  </g>
 </g>
</svg>
