<?xml version="1.0" encoding="UTF-8"?>
<!DOCTYPE svg PUBLIC "-//W3C//DTD SVG 1.1//EN" "http://www.w3.org/Graphics/SVG/1.1/DTD/svg11.dtd">
<!-- Creator: CorelDRAW 2020 (64-Bit) -->
<svg xmlns="http://www.w3.org/2000/svg" xml:space="preserve" width="21.1667mm" height="12.7mm" version="1.1" style="shape-rendering:geometricPrecision; text-rendering:geometricPrecision; image-rendering:optimizeQuality; fill-rule:evenodd; clip-rule:evenodd"
viewBox="0 0 48.24 28.95"
 xmlns:xlink="http://www.w3.org/1999/xlink"
 xmlns:xodm="http://www.corel.com/coreldraw/odm/2003">
 <defs>
  <style type="text/css">
   <![CDATA[
    .fil0 {fill:#FEFEFE}
    .fil1 {fill:#1E3050;fill-rule:nonzero}
   ]]>
  </style>
 </defs>
 <g id="Capa_x0020_1">
  <metadata id="CorelCorpID_0Corel-Layer"/>
  <g id="_2509527754224">
   <path class="fil1" d="M16.12 10.86c-0.52,0.21 -0.76,0.83 -0.68,1.36 0.07,0.49 0.5,0.97 1.03,0.91 0.71,-0.1 1.09,-0.95 0.86,-1.59 -0.14,-0.5 -0.7,-0.91 -1.21,-0.67zm-4.46 -1.1c-1.21,0.39 -1.5,2.18 -0.6,3.03 0.41,0.4 1.07,0.49 1.56,0.19 0.86,-0.49 1.13,-1.72 0.62,-2.55 -0.3,-0.54 -0.98,-0.86 -1.58,-0.67zm-0.31 -1.53l0.36 0c1.29,0.09 2.36,1.13 2.64,2.37 0.29,-0.36 0.67,-0.66 1.12,-0.8 0.69,-0.23 1.5,-0.03 2.01,0.48 0.86,0.8 1,2.27 0.24,3.19 -0.42,0.51 -1.07,0.77 -1.72,0.81 -1.49,0.1 -2.97,0.2 -4.46,0.29 -0.96,0.04 -1.87,-0.49 -2.41,-1.27 -0.84,-1.18 -0.79,-2.93 0.17,-4.03 0.51,-0.6 1.26,-0.99 2.04,-1.04z"/>
   <path class="fil1" d="M20.66 11.76c0,-0.13 -0.03,-0.29 0.13,-0.34 0.31,-0.02 0.62,-0.01 0.93,-0.01 0.11,-0.01 0.23,0.07 0.22,0.19 0.02,0.81 0,1.61 0.01,2.42 -0,0.11 0.02,0.21 0.08,0.31 0.25,-0.2 0.41,-0.48 0.62,-0.72 0.58,-0.73 1.14,-1.47 1.73,-2.19 0.47,-0.03 0.94,-0.04 1.41,0.01 -0.84,1.18 -1.74,2.32 -2.58,3.5 0.98,1.17 1.97,2.33 2.95,3.48 0.07,0.07 0.11,0.15 0.12,0.25 -0.43,-0.01 -0.86,0.02 -1.28,-0.01 -0.11,-0 -0.17,-0.11 -0.24,-0.18 -0.85,-1.02 -1.71,-2.04 -2.56,-3.06 -0.04,-0.09 -0.27,-0.14 -0.24,0.02 -0.03,1.01 0.01,2.03 -0.02,3.04 0,0.11 -0.11,0.19 -0.22,0.18 -0.31,-0 -0.63,0.02 -0.94,-0.02 -0.15,-0.04 -0.11,-0.21 -0.12,-0.32 0,-2.19 0,-4.38 0,-6.57z"/>
   <path class="fil1" d="M39.52 11.48c0.03,-0.02 0.08,-0.05 0.1,-0.07 0.36,0.01 0.74,-0.07 1.08,0.05 0.09,0.32 0.03,0.67 0.05,1 -0.01,0.11 0.03,0.3 -0.12,0.33 -0.33,0.02 -0.67,0.02 -1,0 -0.17,-0.01 -0.15,-0.22 -0.15,-0.33 0.01,-0.33 -0.04,-0.66 0.04,-0.98z"/>
   <path class="fil1" d="M35.68 16.73c-0.36,0.24 -0.18,0.84 0.21,0.95 0.41,0.12 0.85,0.03 1.22,-0.14 0,-0.34 -0,-0.69 -0.01,-1.03 -0.48,0.01 -1,-0.02 -1.42,0.22zm-0.61 -3.15c0.77,-0.1 1.59,-0.21 2.33,0.09 0.55,0.21 0.89,0.8 0.89,1.38 0.01,1.1 0,2.19 0,3.29 0.01,0.11 -0.02,0.24 -0.15,0.26 -0.26,0.02 -0.53,0.02 -0.79,0 -0.13,0.01 -0.17,-0.11 -0.22,-0.21 -0.4,0.31 -0.95,0.31 -1.43,0.26 -0.63,-0.06 -1.2,-0.55 -1.34,-1.17 -0.08,-0.38 -0.04,-0.79 0.14,-1.13 0.21,-0.37 0.62,-0.58 1.03,-0.68 0.51,-0.13 1.04,-0.12 1.57,-0.13 0.01,-0.34 0.07,-0.87 -0.36,-0.97 -0.58,-0.08 -1.17,-0 -1.74,0.09 -0.11,-0 -0.27,0.1 -0.35,-0.01 -0.02,-0.28 -0.02,-0.56 -0,-0.84 0.03,-0.19 0.27,-0.18 0.41,-0.21z"/>
   <path class="fil1" d="M25.99 13.69c0.21,-0.06 0.44,-0.02 0.66,-0.03 0.13,0.02 0.34,-0.04 0.4,0.12 0.32,1.02 0.57,2.07 0.91,3.09 0.04,-0 0.11,-0.02 0.14,-0.02 0.38,-0.99 0.74,-2 1.11,-3 0.03,-0.08 0.08,-0.18 0.17,-0.18 0.24,-0.01 0.49,-0.03 0.72,0.02 0.06,0.07 0.09,0.16 0.12,0.25 0.33,0.92 0.67,1.84 1.01,2.76 0.03,0.1 0.11,0.27 0.22,0.14 0.31,-1.02 0.55,-2.07 0.86,-3.1 0.17,-0.15 0.44,-0.05 0.65,-0.08 0.18,0.01 0.51,-0.06 0.53,0.21 -0.37,1.49 -0.76,2.98 -1.14,4.47 -0.04,0.11 -0.04,0.27 -0.18,0.32 -0.44,0.03 -0.89,0.01 -1.33,0 -0.12,0.03 -0.19,-0.08 -0.22,-0.18 -0.28,-0.75 -0.54,-1.51 -0.83,-2.25 -0.03,-0.01 -0.09,-0.04 -0.12,-0.05 -0.36,0.78 -0.57,1.62 -0.95,2.38 -0.05,0.12 -0.2,0.1 -0.3,0.11 -0.37,-0.01 -0.73,0.01 -1.1,-0.01 -0.15,0.01 -0.18,-0.16 -0.22,-0.27 -0.4,-1.46 -0.82,-2.92 -1.22,-4.38 -0.03,-0.11 -0.07,-0.29 0.08,-0.33z"/>
   <path class="fil1" d="M39.55 13.62c0.36,-0.04 0.72,-0.03 1.08,-0.01 0.14,0.05 0.11,0.22 0.12,0.33 -0,1.43 -0,2.87 0,4.3 -0.02,0.11 0.03,0.3 -0.12,0.34 -0.31,0.03 -0.62,0.01 -0.93,0.01 -0.11,0.02 -0.24,-0.07 -0.22,-0.19 -0,-1.49 0,-2.97 -0,-4.46 0,-0.11 -0.01,-0.23 0.07,-0.32z"/>
   <path class="fil1" d="M12.09 15.07c1.02,-0.11 2.05,-0.19 3.07,-0.29 0.78,-0.1 1.57,0.01 2.33,0.13 0.43,0.17 0.33,0.71 0.33,1.08 -0.62,0.17 -1.27,0.26 -1.9,0.38 -0.28,0.06 -0.67,0.06 -0.78,0.39 -0.08,0.46 -0.02,0.93 -0.04,1.4 -0.03,0.22 0.09,0.49 0.35,0.46 0.33,-0.04 0.66,-0.11 0.98,-0.22 -0,-0.15 -0,-0.29 -0,-0.44 -0.27,0.05 -0.54,0.15 -0.82,0.15 0.02,-0.37 -0.03,-0.75 0.02,-1.12 0.72,-0.2 1.46,-0.29 2.19,-0.45 0.01,0.67 0.01,1.33 0,2 0.01,0.36 -0.31,0.64 -0.64,0.71 -0.87,0.2 -1.75,0.4 -2.62,0.6 -0.39,0.09 -0.81,0.2 -1.21,0.09 -0.29,-0.08 -0.57,-0.2 -0.84,-0.32 0.24,-0.32 0.48,-0.64 0.71,-0.96 0.15,-0.19 0.09,-0.44 0.1,-0.66 -0.02,-0.32 0.08,-0.7 -0.19,-0.95 -0.51,-0.51 -1.01,-1.04 -1.52,-1.55 0.09,-0.2 0.24,-0.41 0.48,-0.43z"/>
   <path class="fil1" d="M8.41 16.21c-0.05,0.12 -0.11,0.25 -0.11,0.39 -0.04,0.7 -0.04,1.4 0.02,2.1 0.01,0.17 0.06,0.35 0.22,0.44 0.54,0.29 1.15,0.42 1.75,0.5 0.18,0.05 0.32,-0.12 0.31,-0.29 0.07,-0.83 0.09,-1.67 -0.01,-2.5 -0.02,-0.21 -0.23,-0.3 -0.4,-0.35 -0.58,-0.16 -1.18,-0.28 -1.79,-0.29zm-0.79 -0.49c0.09,-0.31 0.41,-0.49 0.72,-0.47 0.68,0.04 1.36,0.19 2.03,0.32 0.3,0.06 0.63,0.13 0.86,0.35 0.45,0.41 0.86,0.86 1.3,1.27 0.14,0.14 0.34,0.28 0.32,0.51 -0.01,0.29 0.08,0.63 -0.13,0.87 -0.5,0.63 -0.98,1.26 -1.47,1.89 -0.22,0.3 -0.63,0.29 -0.95,0.22 -0.52,-0.12 -1.03,-0.26 -1.52,-0.44 -0.44,-0.16 -0.96,-0.33 -1.14,-0.81 -0.15,-0.49 -0.11,-1.01 -0.15,-1.52l0 -0.8c0.03,-0.46 0,-0.93 0.14,-1.38z"/>
  </g>
 </g>
</svg>
