<?xml version="1.0" encoding="UTF-8"?>
<!DOCTYPE svg PUBLIC "-//W3C//DTD SVG 1.1//EN" "http://www.w3.org/Graphics/SVG/1.1/DTD/svg11.dtd">
<!-- Creator: CorelDRAW 2020 (64-Bit) -->
<svg xmlns="http://www.w3.org/2000/svg" xml:space="preserve" width="21.1667mm" height="12.7mm" version="1.1" style="shape-rendering:geometricPrecision; text-rendering:geometricPrecision; image-rendering:optimizeQuality; fill-rule:evenodd; clip-rule:evenodd"
viewBox="0 0 48.24 28.95"
 xmlns:xlink="http://www.w3.org/1999/xlink"
 xmlns:xodm="http://www.corel.com/coreldraw/odm/2003">
 <defs>
  <style type="text/css">
   <![CDATA[
    .fil0 {fill:#FEFEFE}
    .fil1 {fill:#1E3050;fill-rule:nonzero}
   ]]>
  </style>
 </defs>
 <g id="Capa_x0020_1">
  <metadata id="CorelCorpID_0Corel-Layer"/>
  <path id="spotify-1.svg" class="fil1" d="M10.54 8.65c-3.21,0 -5.82,2.61 -5.82,5.82 0,3.21 2.61,5.82 5.82,5.82 3.21,0 5.82,-2.61 5.82,-5.82 0,-3.21 -2.61,-5.82 -5.82,-5.82l0 -0 0 0zm2.67 8.39c-0.1,0.17 -0.33,0.23 -0.5,0.12 -1.37,-0.84 -3.09,-1.02 -5.11,-0.56 -0.2,0.04 -0.39,-0.08 -0.43,-0.27 -0.04,-0.2 0.08,-0.39 0.27,-0.43 2.22,-0.51 4.12,-0.29 5.65,0.65 0.17,0.1 0.23,0.33 0.12,0.5l0 -0 0 0zm0.71 -1.58c-0.13,0.21 -0.41,0.28 -0.62,0.15 -1.56,-0.96 -3.95,-1.24 -5.8,-0.68 -0.24,0.07 -0.49,-0.06 -0.57,-0.3 -0.07,-0.24 0.06,-0.49 0.3,-0.57 2.11,-0.64 4.74,-0.33 6.54,0.77 0.21,0.13 0.28,0.41 0.15,0.62l0 -0 0 0zm0.06 -1.65c-1.88,-1.11 -4.97,-1.22 -6.76,-0.67 -0.29,0.09 -0.59,-0.08 -0.68,-0.36 -0.09,-0.29 0.07,-0.59 0.36,-0.68 2.06,-0.62 5.47,-0.5 7.63,0.78 0.26,0.15 0.34,0.49 0.19,0.75 -0.15,0.26 -0.49,0.34 -0.75,0.19l0 0zm6.57 0.21c-1,-0.24 -1.18,-0.41 -1.18,-0.76 0,-0.33 0.31,-0.56 0.78,-0.56 0.45,0 0.9,0.17 1.37,0.52 0.01,0.01 0.03,0.02 0.05,0.01 0.02,-0 0.03,-0.01 0.04,-0.03l0.49 -0.69c0.02,-0.03 0.01,-0.07 -0.01,-0.09 -0.56,-0.45 -1.19,-0.67 -1.93,-0.67 -1.09,0 -1.84,0.65 -1.84,1.58 0,1 0.65,1.35 1.78,1.63 0.96,0.22 1.12,0.41 1.12,0.74 0,0.37 -0.33,0.6 -0.86,0.6 -0.59,0 -1.06,-0.2 -1.6,-0.66 -0.01,-0.01 -0.03,-0.02 -0.05,-0.02 -0.02,0 -0.03,0.01 -0.05,0.02l-0.55 0.65c-0.02,0.03 -0.02,0.07 0.01,0.09 0.62,0.56 1.39,0.85 2.22,0.85 1.17,0 1.92,-0.64 1.92,-1.63 0,-0.83 -0.5,-1.3 -1.72,-1.59l-0 -0 0 0zm4.37 -0.99c-0.51,0 -0.92,0.2 -1.27,0.61l0 -0.46c0,-0.04 -0.03,-0.07 -0.07,-0.07l-0.9 0c-0.04,0 -0.07,0.03 -0.07,0.07l0 5.12c0,0.04 0.03,0.07 0.07,0.07l0.9 0c0.04,0 0.07,-0.03 0.07,-0.07l0 -1.61c0.34,0.38 0.76,0.57 1.27,0.57 0.94,0 1.89,-0.73 1.89,-2.11 0,-1.39 -0.95,-2.11 -1.89,-2.11l-0 0 0 0zm0.85 2.11c0,0.71 -0.43,1.2 -1.06,1.2 -0.62,0 -1.08,-0.51 -1.08,-1.2 0,-0.68 0.46,-1.2 1.08,-1.2 0.61,-0 1.06,0.5 1.06,1.2l-0 0 0 0zm3.49 -2.11c-1.21,0 -2.16,0.93 -2.16,2.13 0,1.18 0.94,2.1 2.15,2.1 1.22,0 2.17,-0.93 2.17,-2.12 0,-1.18 -0.95,-2.11 -2.16,-2.11l0 -0 0 0zm0 3.32c-0.65,0 -1.13,-0.52 -1.13,-1.21 0,-0.69 0.47,-1.19 1.12,-1.19 0.65,0 1.14,0.52 1.14,1.21 0,0.69 -0.47,1.19 -1.12,1.19l-0 0zm4.74 -3.23l-0.99 0 0 -1.01c0,-0.04 -0.03,-0.07 -0.07,-0.07l-0.9 0c-0.04,0 -0.07,0.03 -0.07,0.07l0 1.01 -0.43 0c-0.04,0 -0.07,0.03 -0.07,0.07l0 0.77c0,0.04 0.03,0.07 0.07,0.07l0.43 0 0 2c0,0.81 0.4,1.22 1.2,1.22 0.32,0 0.59,-0.07 0.84,-0.21 0.02,-0.01 0.03,-0.03 0.03,-0.06l0 -0.74c0,-0.02 -0.01,-0.04 -0.03,-0.06 -0.02,-0.01 -0.04,-0.01 -0.06,-0 -0.17,0.09 -0.34,0.13 -0.53,0.13 -0.29,0 -0.42,-0.13 -0.42,-0.42l0 -1.86 0.99 0c0.04,0 0.07,-0.03 0.07,-0.07l0 -0.77c0,-0.04 -0.03,-0.07 -0.06,-0.07l-0 -0 0 0zm3.45 0l0 -0.12c0,-0.37 0.14,-0.53 0.45,-0.53 0.19,0 0.34,0.04 0.51,0.09 0.02,0.01 0.04,0 0.06,-0.01 0.02,-0.01 0.03,-0.03 0.03,-0.05l0 -0.76c0,-0.03 -0.02,-0.05 -0.05,-0.06 -0.18,-0.05 -0.41,-0.11 -0.75,-0.11 -0.83,0 -1.27,0.47 -1.27,1.35l0 0.19 -0.43 0c-0.04,0 -0.07,0.03 -0.07,0.07l0 0.78c0,0.04 0.03,0.07 0.07,0.07l0.43 0 0 3.09c0,0.04 0.03,0.07 0.07,0.07l0.9 0c0.04,0 0.07,-0.03 0.07,-0.07l0 -3.09 0.84 0 1.29 3.09c-0.15,0.32 -0.29,0.39 -0.49,0.39 -0.16,0 -0.33,-0.05 -0.5,-0.14 -0.02,-0.01 -0.04,-0.01 -0.05,-0 -0.02,0.01 -0.03,0.02 -0.04,0.04l-0.3 0.67c-0.01,0.03 -0,0.07 0.03,0.09 0.32,0.17 0.61,0.25 0.96,0.25 0.66,0 1.03,-0.31 1.36,-1.14l1.56 -4.03c0.01,-0.02 0.01,-0.04 -0.01,-0.06 -0.01,-0.02 -0.03,-0.03 -0.05,-0.03l-0.94 0c-0.03,0 -0.05,0.02 -0.06,0.04l-0.96 2.74 -1.05 -2.74c-0.01,-0.03 -0.03,-0.04 -0.06,-0.04l-1.54 0 0 -0zm-2 -0l-0.9 0c-0.04,0 -0.07,0.03 -0.07,0.07l0 3.93c0,0.04 0.03,0.07 0.07,0.07l0.9 0c0.04,0 0.07,-0.03 0.07,-0.07l0 -3.93c0,-0 0,-0 0,-0 0,-0.04 -0.03,-0.07 -0.07,-0.07 -0,0 -0,0 -0,0l0 -0 0 0zm-0.44 -1.79c-0.36,0 -0.65,0.29 -0.65,0.65 0,0.36 0.29,0.65 0.65,0.65 0.36,0 0.65,-0.29 0.65,-0.65 0,-0.36 -0.29,-0.65 -0.65,-0.65l-0 0zm7.88 3.05c-0.36,0 -0.63,-0.29 -0.63,-0.63 0,-0.35 0.28,-0.64 0.64,-0.64 0.36,0 0.63,0.29 0.63,0.63 0,0.35 -0.28,0.64 -0.64,0.64l0 0zm0 -1.21c-0.32,0 -0.57,0.26 -0.57,0.57 0,0.32 0.24,0.57 0.57,0.57 0.32,0 0.57,-0.26 0.57,-0.57 0,-0.32 -0.24,-0.57 -0.57,-0.57l-0 0zm0.14 0.63l0.18 0.25 -0.15 0 -0.16 -0.23 -0.14 0 0 0.23 -0.13 0 0 -0.66 0.3 0c0.15,0 0.26,0.08 0.26,0.21 0,0.11 -0.06,0.18 -0.15,0.2l-0 0 0 0zm-0.11 -0.3l-0.16 0 0 0.21 0.16 0c0.08,0 0.13,-0.04 0.13,-0.11 0,-0.07 -0.05,-0.11 -0.13,-0.11l0 0 0 0z"/>
 </g>
</svg>
