<?xml version="1.0" encoding="UTF-8"?>
<!DOCTYPE svg PUBLIC "-//W3C//DTD SVG 1.1//EN" "http://www.w3.org/Graphics/SVG/1.1/DTD/svg11.dtd">
<!-- Creator: CorelDRAW 2020 (64-Bit) -->
<svg xmlns="http://www.w3.org/2000/svg" xml:space="preserve" width="21.1667mm" height="12.7mm" version="1.1" style="shape-rendering:geometricPrecision; text-rendering:geometricPrecision; image-rendering:optimizeQuality; fill-rule:evenodd; clip-rule:evenodd"
viewBox="0 0 50.94 30.56"
 xmlns:xlink="http://www.w3.org/1999/xlink"
 xmlns:xodm="http://www.corel.com/coreldraw/odm/2003">
 <defs>
  <style type="text/css">
   <![CDATA[
    .fil1 {fill:none;fill-rule:nonzero}
    .fil0 {fill:#FEFEFE}
    .fil4 {fill:#1E3050;fill-rule:nonzero}
    .fil2 {fill:#69C9D0;fill-rule:nonzero}
    .fil3 {fill:#EE1D52;fill-rule:nonzero}
   ]]>
  </style>
 </defs>
 <g id="Capa_x0020_1">
  <metadata id="CorelCorpID_0Corel-Layer"/>
  <path class="fil1" d="M30.22 16.3c-0.04,-0.12 -0.05,-0.24 -0.05,-0.36 0,-0 0,-0 0,-0l0 -0.01c0,0.13 0.02,0.25 0.05,0.38l0 0zm2.66 -0.75l0 0.01c0,0 0,0 0,0 0,0.12 -0.02,0.25 -0.05,0.37 0.04,-0.12 0.05,-0.25 0.05,-0.38l0 0z"/>
  <path class="fil2" d="M30.16 15.93c0,0 0,0 0,0 0,0.12 0.02,0.25 0.05,0.36 0,0.01 0,0.02 0.01,0.02 0.18,0.58 0.71,0.97 1.32,0.97 0,0 0,0 0,0l0 1.4c-0.68,0 -1.17,0.02 -1.91,-0.42 -0.84,-0.5 -1.32,-1.42 -1.32,-2.37 0,-0.98 0.53,-1.96 1.44,-2.44 0.66,-0.34 1.15,-0.35 1.8,-0.35l0 1.4c-0.76,0 -1.38,0.62 -1.38,1.38l-0 0.02z"/>
  <path class="fil3" d="M32.94 15.93c0,0 0,0 0,0 0,0.12 -0.02,0.25 -0.05,0.37 0,0.01 -0.01,0.02 -0.01,0.02 -0.18,0.58 -0.71,0.97 -1.32,0.97l0 1.4c0.68,0 1.17,0.02 1.91,-0.42 0.85,-0.5 1.32,-1.42 1.32,-2.37 0,-0.98 -0.53,-1.96 -1.44,-2.44 -0.66,-0.34 -1.15,-0.35 -1.8,-0.35l0 1.4c0.76,0 1.38,0.62 1.38,1.38 0,0 0,0 0,0l0 0.02z"/>
  <path class="fil4" d="M10.13 11.86l5.12 0 -0.47 1.41 -1.34 0 0 5.4 -1.65 0 0 -5.4 -1.66 0 0 -1.41zm13.58 0l0 1.41 1.66 0 0 5.4 1.65 0 0 -5.4 1.34 0 0.47 -1.41 -5.12 0zm-7.34 1.61c0.44,-0 0.8,-0.36 0.8,-0.8 0,-0.44 -0.36,-0.8 -0.8,-0.8 -0.44,0 -0.8,0.36 -0.8,0.8 0,0 0,0 0,0 0,0 0,0 0,0 0,0.44 0.36,0.8 0.8,0.8 0,0 0,0 0,0l0 0zm-0.8 5.2l1.62 0 0 -4.63 -1.62 0 0 4.63zm7.44 -5.24l-1.89 0 -1.63 1.63 0 -3.19 -1.61 0 -0 6.8 1.62 0 0 -1.77 0.5 -0.46 1.57 2.23 1.73 0 -2.28 -3.26 1.98 -1.98zm15.52 1.98l1.98 -1.98 -1.89 0 -1.63 1.63 0 -3.19 -1.61 0 -0.01 6.8 1.62 0 0 -1.77 0.51 -0.46 1.57 2.23 1.74 0 -2.28 -3.26zm-4.16 0.51c0,1.54 -1.26,2.78 -2.82,2.78 -1.56,0 -2.82,-1.25 -2.82,-2.78 0,-1.54 1.26,-2.78 2.82,-2.78 1.56,0 2.82,1.25 2.82,2.78l0 -0zm-1.44 0c0,-0.76 -0.62,-1.38 -1.38,-1.38 -0.76,0 -1.38,0.62 -1.38,1.38 0,0.76 0.62,1.38 1.38,1.38 0,0 0,0 0,0 0.76,0 1.38,-0.62 1.38,-1.38l0 -0z"/>
 </g>
</svg>
