<?xml version="1.0" encoding="UTF-8"?>
<!DOCTYPE svg PUBLIC "-//W3C//DTD SVG 1.1//EN" "http://www.w3.org/Graphics/SVG/1.1/DTD/svg11.dtd">
<!-- Creator: CorelDRAW 2020 (64-Bit) -->
<svg xmlns="http://www.w3.org/2000/svg" xml:space="preserve" width="21.1667mm" height="12.7mm" version="1.1" style="shape-rendering:geometricPrecision; text-rendering:geometricPrecision; image-rendering:optimizeQuality; fill-rule:evenodd; clip-rule:evenodd"
viewBox="0 0 50.94 30.56"
 xmlns:xlink="http://www.w3.org/1999/xlink"
 xmlns:xodm="http://www.corel.com/coreldraw/odm/2003">
 <defs>
  <style type="text/css">
   <![CDATA[
    .fil0 {fill:#FEFEFE}
    .fil1 {fill:#1E3050}
   ]]>
  </style>
 </defs>
 <g id="Capa_x0020_1">
  <metadata id="CorelCorpID_0Corel-Layer"/>
  <path class="fil1" d="M18.44 12.41c-0.14,-0.51 -0.54,-0.92 -1.06,-1.06 -0.93,-0.25 -4.67,-0.25 -4.67,-0.25 0,0 -3.73,0 -4.67,0.25 -0.51,0.14 -0.92,0.54 -1.06,1.06 -0.25,0.93 -0.25,2.87 -0.25,2.87 0,0 0,1.94 0.25,2.87 0.14,0.51 0.54,0.92 1.06,1.06 0.93,0.25 4.67,0.25 4.67,0.25 0,0 3.74,0 4.67,-0.25 0.51,-0.14 0.92,-0.54 1.06,-1.06 0.25,-0.93 0.25,-2.87 0.25,-2.87 0,0 0,-1.94 -0.25,-2.87zm-6.92 4.67l3.1 -1.79 -3.1 -1.79 0 3.58z"/>
  <g id="_2509520432880">
   <path class="fil1" d="M24.08 18.71c-0.24,-0.16 -0.4,-0.41 -0.5,-0.74 -0.1,-0.34 -0.15,-0.78 -0.15,-1.34l0 -0.76c0,-0.56 0.06,-1.02 0.17,-1.36 0.11,-0.34 0.29,-0.59 0.53,-0.75 0.24,-0.16 0.56,-0.24 0.95,-0.24 0.39,0 0.7,0.08 0.93,0.24 0.23,0.16 0.4,0.41 0.51,0.75 0.11,0.34 0.16,0.79 0.16,1.35l0 0.76c0,0.56 -0.05,1.01 -0.16,1.35 -0.1,0.34 -0.28,0.59 -0.51,0.74 -0.24,0.16 -0.56,0.24 -0.96,0.24 -0.41,0 -0.74,-0.08 -0.98,-0.24l0 0zm1.32 -0.82c0.06,-0.17 0.1,-0.45 0.1,-0.84l0 -1.63c0,-0.38 -0.03,-0.65 -0.1,-0.82 -0.06,-0.17 -0.18,-0.26 -0.35,-0.26 -0.16,0 -0.27,0.09 -0.34,0.26 -0.06,0.17 -0.1,0.45 -0.1,0.82l0 1.63c0,0.39 0.03,0.67 0.09,0.84 0.06,0.17 0.18,0.26 0.34,0.26 0.17,0 0.28,-0.09 0.35,-0.26zm16.82 -1.25l0 0.26c0,0.34 0.01,0.59 0.03,0.76 0.02,0.17 0.06,0.29 0.12,0.37 0.06,0.08 0.16,0.12 0.29,0.12 0.18,0 0.3,-0.07 0.36,-0.21 0.06,-0.14 0.1,-0.36 0.11,-0.68l1.02 0.06c0.01,0.05 0.01,0.11 0.01,0.19 0,0.48 -0.13,0.85 -0.4,1.09 -0.26,0.24 -0.64,0.36 -1.12,0.36 -0.58,0 -0.99,-0.18 -1.22,-0.55 -0.23,-0.36 -0.35,-0.93 -0.35,-1.69l0 -0.91c0,-0.79 0.12,-1.36 0.36,-1.72 0.24,-0.36 0.66,-0.54 1.24,-0.54 0.4,0 0.71,0.07 0.93,0.22 0.22,0.15 0.37,0.38 0.46,0.69 0.09,0.31 0.13,0.75 0.13,1.3l0 0.9 -1.97 0 0 0zm0.15 -2.2c-0.06,0.07 -0.1,0.2 -0.12,0.36 -0.02,0.17 -0.03,0.42 -0.03,0.76l0 0.38 0.86 0 0 -0.38c0,-0.34 -0.01,-0.59 -0.03,-0.76 -0.02,-0.17 -0.06,-0.3 -0.12,-0.37 -0.06,-0.07 -0.15,-0.11 -0.28,-0.11 -0.13,-0 -0.22,0.04 -0.28,0.11l0 0zm-21.16 2.11l-1.34 -4.84 1.17 0 0.47 2.19c0.12,0.54 0.21,1 0.26,1.38l0.03 0c0.04,-0.27 0.13,-0.73 0.26,-1.38l0.49 -2.2 1.17 0 -1.36 4.85 0 2.32 -1.16 0 0 -2.32zm9.28 -2.91l0 5.23 -0.92 0 -0.1 -0.64 -0.02 0c-0.25,0.48 -0.63,0.73 -1.13,0.73 -0.35,0 -0.6,-0.11 -0.77,-0.34 -0.17,-0.23 -0.25,-0.58 -0.25,-1.07l0 -3.91 1.18 0 0 3.84c0,0.23 0.02,0.4 0.08,0.5 0.05,0.1 0.14,0.15 0.26,0.15 0.1,0 0.2,-0.03 0.29,-0.09 0.09,-0.06 0.16,-0.14 0.21,-0.24l0 -4.16 1.18 0zm6.05 0l0 5.23 -0.92 0 -0.1 -0.64 -0.02 0c-0.25,0.48 -0.63,0.73 -1.13,0.73 -0.35,0 -0.6,-0.11 -0.77,-0.34 -0.17,-0.23 -0.25,-0.58 -0.25,-1.07l0 -3.91 1.18 0 0 3.84c0,0.23 0.02,0.4 0.08,0.5 0.05,0.1 0.14,0.15 0.26,0.15 0.1,0 0.2,-0.03 0.29,-0.09 0.09,-0.06 0.16,-0.14 0.21,-0.24l0 -4.16 1.18 0z"/>
   <path class="fil1" d="M33.7 12.64l-1.17 0 0 6.22 -1.15 0 0 -6.22 -1.17 0 0 -0.95 3.49 0 0 0.95 0 0zm6.74 1.82c-0.07,-0.33 -0.19,-0.57 -0.35,-0.72 -0.16,-0.15 -0.38,-0.22 -0.66,-0.22 -0.22,0 -0.42,0.06 -0.61,0.18 -0.19,0.12 -0.33,0.28 -0.44,0.48l-0.01 0 0 -2.76 -1.14 0 0 7.43 0.97 0 0.12 -0.5 0.02 0c0.09,0.18 0.23,0.32 0.41,0.42 0.18,0.1 0.38,0.15 0.61,0.15 0.4,0 0.69,-0.18 0.88,-0.55 0.19,-0.37 0.28,-0.94 0.28,-1.72l0 -0.83c0,-0.59 -0.03,-1.04 -0.1,-1.37l0 0zm-1.08 2.14c0,0.38 -0.02,0.68 -0.05,0.9 -0.03,0.22 -0.08,0.37 -0.16,0.46 -0.07,0.09 -0.17,0.14 -0.3,0.14 -0.1,0 -0.19,-0.02 -0.27,-0.07 -0.08,-0.05 -0.15,-0.11 -0.2,-0.21l0 -2.97c0.04,-0.14 0.11,-0.26 0.21,-0.35 0.1,-0.09 0.2,-0.14 0.32,-0.14 0.12,0 0.21,0.05 0.28,0.14 0.06,0.09 0.11,0.25 0.14,0.47 0.02,0.22 0.04,0.54 0.04,0.95l0 0.68 0 0z"/>
  </g>
 </g>
</svg>
