<?xml version="1.0" encoding="UTF-8"?>
<!DOCTYPE svg PUBLIC "-//W3C//DTD SVG 1.1//EN" "http://www.w3.org/Graphics/SVG/1.1/DTD/svg11.dtd">
<!-- Creator: CorelDRAW 2020 (64-Bit) -->
<svg xmlns="http://www.w3.org/2000/svg" xml:space="preserve" width="26.9774mm" height="9.3274mm" version="1.1" style="shape-rendering:geometricPrecision; text-rendering:geometricPrecision; image-rendering:optimizeQuality; fill-rule:evenodd; clip-rule:evenodd"
viewBox="0 0 80.97 28"
 xmlns:xlink="http://www.w3.org/1999/xlink"
 xmlns:xodm="http://www.corel.com/coreldraw/odm/2003">
 <defs>
  <style type="text/css">
   <![CDATA[
    .fil0 {fill:#FEFEFE}
   ]]>
  </style>
 </defs>
 <g id="Capa_x0020_1">
  <metadata id="CorelCorpID_0Corel-Layer"/>
  <g id="Page-1">
   <g id="Artboard">
    <g id="Group-23">
     <path id="Combined-Shape-Copy-3" class="fil0" d="M18.99 21.46c0.94,-1.45 1.49,-3.2 1.49,-5.07 0,-2.71 -1.15,-5.15 -2.99,-6.84 -0.35,1.55 -0.88,3.29 -1.57,5.22l-3.63 -1.31c1.02,-2.36 1.67,-4.31 1.93,-5.84 -0.88,-0.29 -1.83,-0.45 -2.8,-0.45 -3.51,0 -6.55,2.02 -8.05,4.98 0.01,3.5 1.44,6.04 4.31,7.61 2.99,1.64 6.76,2.2 11.31,1.69zm-3.65 3.24c-3.69,-0.17 -6.69,-1.33 -9.01,-3.49 -2.43,-2.26 -3.52,-5.06 -3.27,-8.4 -0.45,1.1 -0.71,2.31 -0.71,3.57 0,5.09 4.06,9.22 9.06,9.22 1.41,0 2.74,-0.33 3.93,-0.91zm-1.1 -19.56c-0.13,-0.53 -0.37,-0.95 -0.72,-1.24 -1.43,-1.19 -4.37,-0.16 -8.82,3.08 4.64,-5.91 8.38,-8.07 11.22,-6.48 1.72,0.96 2.4,3.09 2.04,6.37 2.95,2.1 4.87,5.58 4.87,9.51 0,6.41 -5.11,11.61 -11.41,11.61 -6.3,0 -11.41,-5.2 -11.41,-11.61 0,-6.41 5.11,-11.61 11.41,-11.61 0.98,0 1.92,0.12 2.83,0.36zm-4.44 13.7c-1.27,0 -2.3,-1.08 -2.3,-2.42 0,-1.34 1.03,-2.42 2.3,-2.42 1.27,0 2.3,1.08 2.3,2.42 0,1.34 -1.03,2.42 -2.3,2.42zm5.96 2.07c-1.27,0 -2.3,-1.08 -2.3,-2.42 0,-1.34 1.03,-2.42 2.3,-2.42 1.27,0 2.3,1.08 2.3,2.42 0,1.34 -1.03,2.42 -2.3,2.42z"/>
     <path id="Combined-Shape-Copy-3_0" class="fil0" d="M31.14 28c-0.94,0 -1.75,-0.21 -2.41,-0.64 -0.66,-0.43 -1.17,-1.01 -1.51,-1.76 -0.34,-0.74 -0.52,-1.58 -0.52,-2.52l0 -13.41c0,-0.93 0.18,-1.77 0.53,-2.51 0.35,-0.74 0.87,-1.33 1.53,-1.77 0.67,-0.43 1.46,-0.65 2.37,-0.65 0.69,0 1.3,0.13 1.85,0.39 0.54,0.26 1.01,0.61 1.39,1.06 0.38,0.45 0.68,0.97 0.89,1.56 0.21,0.59 0.31,1.23 0.31,1.91l0 3.13 -3.11 0 0 -3.13c0,-0.47 -0.1,-0.87 -0.29,-1.19 -0.2,-0.32 -0.52,-0.48 -0.97,-0.48 -0.41,0 -0.71,0.17 -0.89,0.5 -0.18,0.33 -0.28,0.72 -0.28,1.18l0 13.41c0,0.45 0.1,0.85 0.3,1.18 0.2,0.33 0.49,0.5 0.87,0.5 0.46,0 0.79,-0.16 0.98,-0.48 0.19,-0.32 0.28,-0.72 0.28,-1.19l0 -3.13 3.11 0 0 3.13c0,0.93 -0.18,1.77 -0.54,2.51 -0.36,0.74 -0.87,1.33 -1.53,1.77 -0.66,0.43 -1.45,0.65 -2.36,0.65zm9.38 -0.03c-1.24,0 -2.22,-0.42 -2.93,-1.26 -0.71,-0.84 -1.06,-1.91 -1.06,-3.2l0 -8.49c0,-1.29 0.35,-2.36 1.06,-3.2 0.71,-0.84 1.68,-1.26 2.93,-1.26 1.23,0 2.2,0.42 2.92,1.26 0.71,0.84 1.07,1.91 1.07,3.2l0 8.49c0,1.29 -0.36,2.36 -1.07,3.2 -0.71,0.84 -1.69,1.26 -2.92,1.26zm0 -2.73c0.4,0 0.68,-0.16 0.83,-0.49 0.15,-0.33 0.23,-0.74 0.23,-1.25l0 -8.49c0,-0.52 -0.08,-0.93 -0.23,-1.25 -0.15,-0.32 -0.43,-0.48 -0.83,-0.48 -0.4,0 -0.68,0.16 -0.83,0.48 -0.15,0.32 -0.23,0.74 -0.23,1.25l0 8.49c0,0.52 0.08,0.93 0.23,1.25 0.15,0.32 0.43,0.48 0.83,0.48zm4.79 2.51l0 -22.76 3.11 0 0 22.76 -3.11 0zm5.02 0l0 -14.12 -1.57 0 0 -2.82 1.57 0 0 -0.93c0,-1.6 0.37,-2.84 1.12,-3.71 0.74,-0.87 1.72,-1.31 2.92,-1.31 0.27,0 0.51,0.03 0.74,0.08 0.23,0.05 0.41,0.12 0.55,0.2l0 2.73c-0.21,-0.15 -0.51,-0.23 -0.92,-0.23 -0.3,0 -0.59,0.15 -0.87,0.46 -0.28,0.31 -0.42,0.77 -0.42,1.38l0 1.33 1.88 0 0 2.82 -1.88 0 0 14.12 -3.11 0zm9.35 0.22c-1.24,0 -2.22,-0.42 -2.93,-1.26 -0.71,-0.84 -1.06,-1.91 -1.06,-3.2l0 -8.49c0,-1.29 0.35,-2.36 1.06,-3.2 0.71,-0.84 1.68,-1.26 2.93,-1.26 1.23,0 2.2,0.42 2.92,1.26 0.71,0.84 1.07,1.91 1.07,3.2l0 8.49c0,1.29 -0.36,2.36 -1.07,3.2 -0.71,0.84 -1.69,1.26 -2.92,1.26zm0 -2.73c0.4,0 0.68,-0.16 0.83,-0.49 0.15,-0.33 0.23,-0.74 0.23,-1.25l0 -8.49c0,-0.52 -0.08,-0.93 -0.23,-1.25 -0.15,-0.32 -0.43,-0.48 -0.83,-0.48 -0.4,0 -0.68,0.16 -0.83,0.48 -0.15,0.32 -0.23,0.74 -0.23,1.25l0 8.49c0,0.52 0.08,0.93 0.23,1.25 0.15,0.32 0.43,0.48 0.83,0.48zm4.64 2.51l0 -16.94 3.11 0 0 1.42c0.37,-0.36 0.79,-0.73 1.25,-1.11 0.46,-0.38 0.89,-0.57 1.28,-0.57 0.51,0 0.94,0.17 1.29,0.5 0.35,0.33 0.61,0.75 0.79,1.25 0.17,0.51 0.26,1.03 0.26,1.56l0 13.87 -3.11 0 0 -13.26c0,-0.33 -0.06,-0.56 -0.17,-0.7 -0.11,-0.13 -0.3,-0.2 -0.57,-0.2 -0.23,0 -0.42,0.08 -0.58,0.24 -0.16,0.16 -0.31,0.35 -0.44,0.57l0 13.35 -3.11 0zm12.63 0.25c-1.24,0 -2.22,-0.43 -2.93,-1.29 -0.71,-0.86 -1.07,-1.92 -1.07,-3.17l0 -8.52c0,-1.32 0.35,-2.39 1.06,-3.22 0.71,-0.83 1.7,-1.24 2.97,-1.24 0.83,0 1.55,0.19 2.15,0.57 0.6,0.38 1.06,0.9 1.38,1.56 0.32,0.66 0.48,1.4 0.48,2.24l0 4.92 -5.14 0 0 3.69c0,0.42 0.1,0.81 0.29,1.17 0.19,0.36 0.47,0.53 0.85,0.53 0.4,0 0.69,-0.17 0.85,-0.5 0.17,-0.33 0.25,-0.73 0.25,-1.21l0 -1.86 2.9 0 0 1.95c0,1.31 -0.35,2.37 -1.06,3.17 -0.7,0.8 -1.7,1.2 -2.98,1.2zm-1.11 -10.59l2.25 0 0 -2.38c0,-0.46 -0.08,-0.87 -0.24,-1.22 -0.16,-0.35 -0.45,-0.52 -0.87,-0.52 -0.39,0 -0.68,0.18 -0.86,0.53 -0.18,0.36 -0.28,0.76 -0.28,1.2l0 2.38z"/>
    </g>
   </g>
  </g>
 </g>
</svg>
